# xmcd
#
# Track frame offsets: 
#        150
#        11760
#        34144
#        55311
#        68184
#        82027
#        94389
#        106162
#        119705
#        131693
#        145616
#        162993
#
# Disc length: 2483 seconds
#
# Revision: 0
# Processed by: cddbd v1.5.1PL0 Copyright (c) Steve Scherf et al.
# Submitted via: ExactAudioCopy v0.95a5
#
DISCID=aa09b10c
DTITLE=Various Artist - Gettin' Rowdy Hillbilly Rock
DYEAR=2005
DGENRE=Country
TTITLE0=Steve Earle - Guitar Town
TTITLE1=George Thorogood and the Destroyers - Bad To The Bone
TTITLE2=Lynyrd Skynyrd - Sweet Home Alabama
TTITLE3=The Kentucky Headhunters - Dumas Walker
TTITLE4=Mark Chesnutt - Brother Jukebox
TTITLE5=Commander Cody and His Lost Planet Airmen - Hot Rod Lincoln
TTITLE6=Jerry Lee Lewis - What's Made Milwaukee Famos (Has Made A Lose
TTITLE6=r Out of Me)
TTITLE7=Gary Stewart - Drinkin' Thing
TTITLE8=Marty Stuart - Hillbilly Rock
TTITLE9=Ozark Mountins Daredevils - If You Wanna Get To Heaven
TTITLE10=38 Special - Hold On Loosely
TTITLE11=Lynyrd Skynyrd - Saturday Night Special
EXTD=
EXTT0=
EXTT1=
EXTT2=
EXTT3=
EXTT4=
EXTT5=
EXTT6=
EXTT7=
EXTT8=
EXTT9=
EXTT10=
EXTT11=
PLAYORDER=
